<?xml version="1.0" encoding="utf-8"?>
<!-- Generator: Adobe Illustrator 25.2.3, SVG Export Plug-In . SVG Version: 6.00 Build 0)  -->
<svg version="1.1" id="Layer_1" xmlns="http://www.w3.org/2000/svg" xmlns:xlink="http://www.w3.org/1999/xlink" x="0px" y="0px"
	 viewBox="0 0 90 70" style="enable-background:new 0 0 90 70;" xml:space="preserve">
<style type="text/css">
	.st0{fill:#231F20;}
	.st1{fill:#006340;}
</style>
<path class="st0" d="M82.5999985,61H9.3000002V21h73.3000031C82.6000061,21,82.6000061,61,82.5999985,61z M11.3000002,59h69.3000031
	V23H11.3000002V59z"/>
<circle class="st1" cx="45" cy="41" r="14.0999994"/>
<path class="st0" d="M81.5999985,34.7999992C74.5,34.7999992,68.6999969,29,68.6999969,21.8999996h2
	c0,6,4.9000015,10.8999996,10.9000015,10.8999996V34.7999992z"/>
<path class="st0" d="M70.6999969,60h-2c0-7.0999985,5.8000031-12.9000015,12.9000015-12.9000015v2
	C75.5999985,49.2000008,70.6999969,54,70.6999969,60z"/>
<path class="st0" d="M23.1000004,60h-2c0-6-4.8999996-10.9000015-10.8999996-10.9000015v-2
	C17.3999996,47.2000008,23.1000004,52.9000015,23.1000004,60z"/>
<path class="st0" d="M10.3000002,34.7999992v-2c5.999999,0,10.9000006-4.8999996,10.9000006-10.8999996h2
	C23.1000004,29.1000004,17.3999996,34.7999992,10.3000002,34.7999992z"/>
<rect x="16.2999992" y="15" class="st0" width="59.2999992" height="2"/>
<rect x="22.2999992" y="9" class="st0" width="47.2999992" height="2"/>
</svg>
